# Wavefront OBJ file automatically generated by Tiled2Unity

# Vertices (Count = 651)
v 0 -0.64 0
v -0.64 -0.64 0
v -0.64 0 0
v 0 0 0
v -1.28 -0.64 0
v -1.28 0 0
v -1.92 -0.64 0
v -1.92 0 0
v -2.56 -0.64 0
v -2.56 0 0
v -3.2 -0.64 0
v -3.2 0 0
v -3.84 -0.64 0
v -3.84 0 0
v -4.48 -0.64 0
v -4.48 0 0
v -5.12 -0.64 0
v -5.12 0 0
v -5.76 -0.64 0
v -5.76 0 0
v -6.4 -0.64 0
v -6.4 0 0
v -7.04 -0.64 0
v -7.04 0 0
v -7.68 -0.64 0
v -7.68 0 0
v -8.32 -0.64 0
v -8.32 0 0
v -8.96 -0.64 0
v -8.96 0 0
v -9.599999 -0.64 0
v -9.599999 0 0
v -10.24 -0.64 0
v -10.24 0 0
v -10.88 -0.64 0
v -10.88 0 0
v -11.52 -0.64 0
v -11.52 0 0
v -12.16 -0.64 0
v -12.16 0 0
v -12.8 -0.64 0
v -12.8 0 0
v -13.44 -0.64 0
v -13.44 0 0
v -14.08 -0.64 0
v -14.08 0 0
v -14.72 -0.64 0
v -14.72 0 0
v -15.36 -0.64 0
v -15.36 0 0
v -16 -0.64 0
v -16 0 0
v -16.64 -0.64 0
v -16.64 0 0
v -17.28 -0.64 0
v -17.28 0 0
v -17.92 -0.64 0
v -17.92 0 0
v -18.56 -0.64 0
v -18.56 0 0
v -19.2 -0.64 0
v -19.2 0 0
v 0 -1.28 0
v -0.64 -1.28 0
v -18.56 -1.28 0
v -19.2 -1.28 0
v 0 -1.92 0
v -0.64 -1.92 0
v -18.56 -1.92 0
v -19.2 -1.92 0
v 0 -2.56 0
v -0.64 -2.56 0
v -18.56 -2.56 0
v -19.2 -2.56 0
v 0 -3.2 0
v -0.64 -3.2 0
v -18.56 -3.2 0
v -19.2 -3.2 0
v 0 -3.84 0
v -0.64 -3.84 0
v -18.56 -3.84 0
v -19.2 -3.84 0
v 0 -4.48 0
v -0.64 -4.48 0
v -18.56 -4.48 0
v -19.2 -4.48 0
v 0 -5.12 0
v -0.64 -5.12 0
v -18.56 -5.12 0
v -19.2 -5.12 0
v 0 -5.76 0
v -0.64 -5.76 0
v -18.56 -5.76 0
v -19.2 -5.76 0
v 0 -6.4 0
v -0.64 -6.4 0
v -18.56 -6.4 0
v -19.2 -6.4 0
v 0 -7.04 0
v -0.64 -7.04 0
v -18.56 -7.04 0
v -19.2 -7.04 0
v 0 -7.68 0
v -0.64 -7.68 0
v -18.56 -7.68 0
v -19.2 -7.68 0
v 0 -8.32 0
v -0.64 -8.32 0
v -18.56 -8.32 0
v -19.2 -8.32 0
v 0 -8.96 0
v -0.64 -8.96 0
v -18.56 -8.96 0
v -19.2 -8.96 0
v 0 -9.599999 0
v -0.64 -9.599999 0
v -18.56 -9.599999 0
v -19.2 -9.599999 0
v 0 -10.24 0
v -0.64 -10.24 0
v -18.56 -10.24 0
v -19.2 -10.24 0
v 0 -10.88 0
v -0.64 -10.88 0
v -18.56 -10.88 0
v -19.2 -10.88 0
v 0 -11.52 0
v -0.64 -11.52 0
v -18.56 -11.52 0
v -19.2 -11.52 0
v 0 -12.16 0
v -0.64 -12.16 0
v -18.56 -12.16 0
v -19.2 -12.16 0
v 0 -12.8 0
v -0.64 -12.8 0
v -1.28 -12.8 0
v -1.28 -12.16 0
v -1.92 -12.8 0
v -1.92 -12.16 0
v -2.56 -12.8 0
v -2.56 -12.16 0
v -3.2 -12.8 0
v -3.2 -12.16 0
v -3.84 -12.8 0
v -3.84 -12.16 0
v -4.48 -12.8 0
v -4.48 -12.16 0
v -5.12 -12.8 0
v -5.12 -12.16 0
v -5.76 -12.8 0
v -5.76 -12.16 0
v -6.4 -12.8 0
v -6.4 -12.16 0
v -7.04 -12.8 0
v -7.04 -12.16 0
v -7.68 -12.8 0
v -7.68 -12.16 0
v -8.32 -12.8 0
v -8.32 -12.16 0
v -8.96 -12.8 0
v -8.96 -12.16 0
v -9.599999 -12.8 0
v -9.599999 -12.16 0
v -10.24 -12.8 0
v -10.24 -12.16 0
v -10.88 -12.8 0
v -10.88 -12.16 0
v -11.52 -12.8 0
v -11.52 -12.16 0
v -12.16 -12.8 0
v -12.16 -12.16 0
v -12.8 -12.8 0
v -12.8 -12.16 0
v -13.44 -12.8 0
v -13.44 -12.16 0
v -14.08 -12.8 0
v -14.08 -12.16 0
v -14.72 -12.8 0
v -14.72 -12.16 0
v -15.36 -12.8 0
v -15.36 -12.16 0
v -16 -12.8 0
v -16 -12.16 0
v -16.64 -12.8 0
v -16.64 -12.16 0
v -17.28 -12.8 0
v -17.28 -12.16 0
v -17.92 -12.8 0
v -17.92 -12.16 0
v -18.56 -12.8 0
v -19.2 -12.8 0
v -1.28 -1.28 0
v -1.92 -1.28 0
v -2.56 -1.28 0
v -3.2 -1.28 0
v -3.84 -1.28 0
v -4.48 -1.28 0
v -5.12 -1.28 0
v -5.76 -1.28 0
v -6.4 -1.28 0
v -7.04 -1.28 0
v -7.68 -1.28 0
v -8.32 -1.28 0
v -8.96 -1.28 0
v -9.599999 -1.28 0
v -10.24 -1.28 0
v -10.88 -1.28 0
v -11.52 -1.28 0
v -12.16 -1.28 0
v -12.8 -1.28 0
v -13.44 -1.28 0
v -14.08 -1.28 0
v -14.72 -1.28 0
v -15.36 -1.28 0
v -16 -1.28 0
v -16.64 -1.28 0
v -17.28 -1.28 0
v -17.92 -1.28 0
v -1.28 -1.92 0
v -1.92 -1.92 0
v -2.56 -1.92 0
v -3.2 -1.92 0
v -3.84 -1.92 0
v -4.48 -1.92 0
v -5.12 -1.92 0
v -5.76 -1.92 0
v -6.4 -1.92 0
v -7.04 -1.92 0
v -7.68 -1.92 0
v -8.32 -1.92 0
v -8.96 -1.92 0
v -9.599999 -1.92 0
v -10.24 -1.92 0
v -10.88 -1.92 0
v -11.52 -1.92 0
v -12.16 -1.92 0
v -12.8 -1.92 0
v -13.44 -1.92 0
v -14.08 -1.92 0
v -14.72 -1.92 0
v -15.36 -1.92 0
v -16 -1.92 0
v -16.64 -1.92 0
v -17.28 -1.92 0
v -17.92 -1.92 0
v -1.28 -2.56 0
v -1.92 -2.56 0
v -2.56 -2.56 0
v -3.2 -2.56 0
v -3.84 -2.56 0
v -4.48 -2.56 0
v -5.12 -2.56 0
v -5.76 -2.56 0
v -6.4 -2.56 0
v -7.04 -2.56 0
v -7.68 -2.56 0
v -8.32 -2.56 0
v -8.96 -2.56 0
v -9.599999 -2.56 0
v -10.24 -2.56 0
v -10.88 -2.56 0
v -11.52 -2.56 0
v -12.16 -2.56 0
v -12.8 -2.56 0
v -13.44 -2.56 0
v -14.08 -2.56 0
v -14.72 -2.56 0
v -15.36 -2.56 0
v -16 -2.56 0
v -16.64 -2.56 0
v -17.28 -2.56 0
v -17.92 -2.56 0
v -1.28 -3.2 0
v -1.92 -3.2 0
v -2.56 -3.2 0
v -3.2 -3.2 0
v -3.84 -3.2 0
v -4.48 -3.2 0
v -5.12 -3.2 0
v -5.76 -3.2 0
v -6.4 -3.2 0
v -7.04 -3.2 0
v -7.68 -3.2 0
v -8.32 -3.2 0
v -8.96 -3.2 0
v -9.599999 -3.2 0
v -10.24 -3.2 0
v -10.88 -3.2 0
v -11.52 -3.2 0
v -12.16 -3.2 0
v -12.8 -3.2 0
v -13.44 -3.2 0
v -14.08 -3.2 0
v -14.72 -3.2 0
v -15.36 -3.2 0
v -16 -3.2 0
v -16.64 -3.2 0
v -17.28 -3.2 0
v -17.92 -3.2 0
v -1.28 -3.84 0
v -1.92 -3.84 0
v -2.56 -3.84 0
v -3.2 -3.84 0
v -3.84 -3.84 0
v -4.48 -3.84 0
v -5.12 -3.84 0
v -5.76 -3.84 0
v -6.4 -3.84 0
v -7.04 -3.84 0
v -7.68 -3.84 0
v -8.32 -3.84 0
v -8.96 -3.84 0
v -9.599999 -3.84 0
v -10.24 -3.84 0
v -10.88 -3.84 0
v -11.52 -3.84 0
v -12.16 -3.84 0
v -12.8 -3.84 0
v -13.44 -3.84 0
v -14.08 -3.84 0
v -14.72 -3.84 0
v -15.36 -3.84 0
v -16 -3.84 0
v -16.64 -3.84 0
v -17.28 -3.84 0
v -17.92 -3.84 0
v -1.28 -4.48 0
v -1.92 -4.48 0
v -2.56 -4.48 0
v -3.2 -4.48 0
v -3.84 -4.48 0
v -4.48 -4.48 0
v -5.12 -4.48 0
v -5.76 -4.48 0
v -6.4 -4.48 0
v -7.04 -4.48 0
v -7.68 -4.48 0
v -8.32 -4.48 0
v -8.96 -4.48 0
v -9.599999 -4.48 0
v -10.24 -4.48 0
v -10.88 -4.48 0
v -11.52 -4.48 0
v -12.16 -4.48 0
v -12.8 -4.48 0
v -13.44 -4.48 0
v -14.08 -4.48 0
v -14.72 -4.48 0
v -15.36 -4.48 0
v -16 -4.48 0
v -16.64 -4.48 0
v -17.28 -4.48 0
v -17.92 -4.48 0
v -1.28 -5.12 0
v -1.92 -5.12 0
v -2.56 -5.12 0
v -3.2 -5.12 0
v -3.84 -5.12 0
v -4.48 -5.12 0
v -5.12 -5.12 0
v -5.76 -5.12 0
v -6.4 -5.12 0
v -7.04 -5.12 0
v -7.68 -5.12 0
v -8.32 -5.12 0
v -8.96 -5.12 0
v -9.599999 -5.12 0
v -10.24 -5.12 0
v -10.88 -5.12 0
v -11.52 -5.12 0
v -12.16 -5.12 0
v -12.8 -5.12 0
v -13.44 -5.12 0
v -14.08 -5.12 0
v -14.72 -5.12 0
v -15.36 -5.12 0
v -16 -5.12 0
v -16.64 -5.12 0
v -17.28 -5.12 0
v -17.92 -5.12 0
v -1.28 -5.76 0
v -1.92 -5.76 0
v -2.56 -5.76 0
v -3.2 -5.76 0
v -3.84 -5.76 0
v -4.48 -5.76 0
v -5.12 -5.76 0
v -5.76 -5.76 0
v -6.4 -5.76 0
v -7.04 -5.76 0
v -7.68 -5.76 0
v -8.32 -5.76 0
v -8.96 -5.76 0
v -9.599999 -5.76 0
v -10.24 -5.76 0
v -10.88 -5.76 0
v -11.52 -5.76 0
v -12.16 -5.76 0
v -12.8 -5.76 0
v -13.44 -5.76 0
v -14.08 -5.76 0
v -14.72 -5.76 0
v -15.36 -5.76 0
v -16 -5.76 0
v -16.64 -5.76 0
v -17.28 -5.76 0
v -17.92 -5.76 0
v -1.28 -6.4 0
v -1.92 -6.4 0
v -2.56 -6.4 0
v -3.2 -6.4 0
v -3.84 -6.4 0
v -4.48 -6.4 0
v -5.12 -6.4 0
v -5.76 -6.4 0
v -6.4 -6.4 0
v -7.04 -6.4 0
v -7.68 -6.4 0
v -8.32 -6.4 0
v -8.96 -6.4 0
v -9.599999 -6.4 0
v -10.24 -6.4 0
v -10.88 -6.4 0
v -11.52 -6.4 0
v -12.16 -6.4 0
v -12.8 -6.4 0
v -13.44 -6.4 0
v -14.08 -6.4 0
v -14.72 -6.4 0
v -15.36 -6.4 0
v -16 -6.4 0
v -16.64 -6.4 0
v -17.28 -6.4 0
v -17.92 -6.4 0
v -1.28 -7.04 0
v -1.92 -7.04 0
v -2.56 -7.04 0
v -3.2 -7.04 0
v -3.84 -7.04 0
v -4.48 -7.04 0
v -5.12 -7.04 0
v -5.76 -7.04 0
v -6.4 -7.04 0
v -7.04 -7.04 0
v -7.68 -7.04 0
v -8.32 -7.04 0
v -8.96 -7.04 0
v -9.599999 -7.04 0
v -10.24 -7.04 0
v -10.88 -7.04 0
v -11.52 -7.04 0
v -12.16 -7.04 0
v -12.8 -7.04 0
v -13.44 -7.04 0
v -14.08 -7.04 0
v -14.72 -7.04 0
v -15.36 -7.04 0
v -16 -7.04 0
v -16.64 -7.04 0
v -17.28 -7.04 0
v -17.92 -7.04 0
v -1.28 -7.68 0
v -1.92 -7.68 0
v -2.56 -7.68 0
v -3.2 -7.68 0
v -3.84 -7.68 0
v -4.48 -7.68 0
v -5.12 -7.68 0
v -5.76 -7.68 0
v -6.4 -7.68 0
v -7.04 -7.68 0
v -7.68 -7.68 0
v -8.32 -7.68 0
v -8.96 -7.68 0
v -9.599999 -7.68 0
v -10.24 -7.68 0
v -10.88 -7.68 0
v -11.52 -7.68 0
v -12.16 -7.68 0
v -12.8 -7.68 0
v -13.44 -7.68 0
v -14.08 -7.68 0
v -14.72 -7.68 0
v -15.36 -7.68 0
v -16 -7.68 0
v -16.64 -7.68 0
v -17.28 -7.68 0
v -17.92 -7.68 0
v -1.28 -8.32 0
v -1.92 -8.32 0
v -2.56 -8.32 0
v -3.2 -8.32 0
v -3.84 -8.32 0
v -4.48 -8.32 0
v -5.12 -8.32 0
v -5.76 -8.32 0
v -6.4 -8.32 0
v -7.04 -8.32 0
v -7.68 -8.32 0
v -8.32 -8.32 0
v -8.96 -8.32 0
v -9.599999 -8.32 0
v -10.24 -8.32 0
v -10.88 -8.32 0
v -11.52 -8.32 0
v -12.16 -8.32 0
v -12.8 -8.32 0
v -13.44 -8.32 0
v -14.08 -8.32 0
v -14.72 -8.32 0
v -15.36 -8.32 0
v -16 -8.32 0
v -16.64 -8.32 0
v -17.28 -8.32 0
v -17.92 -8.32 0
v -1.28 -8.96 0
v -1.92 -8.96 0
v -2.56 -8.96 0
v -3.2 -8.96 0
v -3.84 -8.96 0
v -4.48 -8.96 0
v -5.12 -8.96 0
v -5.76 -8.96 0
v -6.4 -8.96 0
v -7.04 -8.96 0
v -7.68 -8.96 0
v -8.32 -8.96 0
v -8.96 -8.96 0
v -9.599999 -8.96 0
v -10.24 -8.96 0
v -10.88 -8.96 0
v -11.52 -8.96 0
v -12.16 -8.96 0
v -12.8 -8.96 0
v -13.44 -8.96 0
v -14.08 -8.96 0
v -14.72 -8.96 0
v -15.36 -8.96 0
v -16 -8.96 0
v -16.64 -8.96 0
v -17.28 -8.96 0
v -17.92 -8.96 0
v -1.28 -9.599999 0
v -1.92 -9.599999 0
v -2.56 -9.599999 0
v -3.2 -9.599999 0
v -3.84 -9.599999 0
v -4.48 -9.599999 0
v -5.12 -9.599999 0
v -5.76 -9.599999 0
v -6.4 -9.599999 0
v -7.04 -9.599999 0
v -7.68 -9.599999 0
v -8.32 -9.599999 0
v -8.96 -9.599999 0
v -9.599999 -9.599999 0
v -10.24 -9.599999 0
v -10.88 -9.599999 0
v -11.52 -9.599999 0
v -12.16 -9.599999 0
v -12.8 -9.599999 0
v -13.44 -9.599999 0
v -14.08 -9.599999 0
v -14.72 -9.599999 0
v -15.36 -9.599999 0
v -16 -9.599999 0
v -16.64 -9.599999 0
v -17.28 -9.599999 0
v -17.92 -9.599999 0
v -1.28 -10.24 0
v -1.92 -10.24 0
v -2.56 -10.24 0
v -3.2 -10.24 0
v -3.84 -10.24 0
v -4.48 -10.24 0
v -5.12 -10.24 0
v -5.76 -10.24 0
v -6.4 -10.24 0
v -7.04 -10.24 0
v -7.68 -10.24 0
v -8.32 -10.24 0
v -8.96 -10.24 0
v -9.599999 -10.24 0
v -10.24 -10.24 0
v -10.88 -10.24 0
v -11.52 -10.24 0
v -12.16 -10.24 0
v -12.8 -10.24 0
v -13.44 -10.24 0
v -14.08 -10.24 0
v -14.72 -10.24 0
v -15.36 -10.24 0
v -16 -10.24 0
v -16.64 -10.24 0
v -17.28 -10.24 0
v -17.92 -10.24 0
v -1.28 -10.88 0
v -1.92 -10.88 0
v -2.56 -10.88 0
v -3.2 -10.88 0
v -3.84 -10.88 0
v -4.48 -10.88 0
v -5.12 -10.88 0
v -5.76 -10.88 0
v -6.4 -10.88 0
v -7.04 -10.88 0
v -7.68 -10.88 0
v -8.32 -10.88 0
v -8.96 -10.88 0
v -9.599999 -10.88 0
v -10.24 -10.88 0
v -10.88 -10.88 0
v -11.52 -10.88 0
v -12.16 -10.88 0
v -12.8 -10.88 0
v -13.44 -10.88 0
v -14.08 -10.88 0
v -14.72 -10.88 0
v -15.36 -10.88 0
v -16 -10.88 0
v -16.64 -10.88 0
v -17.28 -10.88 0
v -17.92 -10.88 0
v -1.28 -11.52 0
v -1.92 -11.52 0
v -2.56 -11.52 0
v -3.2 -11.52 0
v -3.84 -11.52 0
v -4.48 -11.52 0
v -5.12 -11.52 0
v -5.76 -11.52 0
v -6.4 -11.52 0
v -7.04 -11.52 0
v -7.68 -11.52 0
v -8.32 -11.52 0
v -8.96 -11.52 0
v -9.599999 -11.52 0
v -10.24 -11.52 0
v -10.88 -11.52 0
v -11.52 -11.52 0
v -12.16 -11.52 0
v -12.8 -11.52 0
v -13.44 -11.52 0
v -14.08 -11.52 0
v -14.72 -11.52 0
v -15.36 -11.52 0
v -16 -11.52 0
v -16.64 -11.52 0
v -17.28 -11.52 0
v -17.92 -11.52 0

# Texture cooridinates (Count = 8)
vt 0.0001220703 0.5001221
vt 0.4998779 0.5001221
vt 0.4998779 0.9998779
vt 0.0001220703 0.9998779
vt 0.0001220703 0.0001220703
vt 0.4998779 0.0001220703
vt 0.4998779 0.4998779
vt 0.0001220703 0.4998779

# Normal
vn 0 0 -1

# Groups (Count = 2)

g mesh_0001
f 1/1/1 2/2/1 3/3/1 4/4/1
f 2/1/1 5/2/1 6/3/1 3/4/1
f 5/1/1 7/2/1 8/3/1 6/4/1
f 7/1/1 9/2/1 10/3/1 8/4/1
f 9/1/1 11/2/1 12/3/1 10/4/1
f 11/1/1 13/2/1 14/3/1 12/4/1
f 13/1/1 15/2/1 16/3/1 14/4/1
f 15/1/1 17/2/1 18/3/1 16/4/1
f 17/1/1 19/2/1 20/3/1 18/4/1
f 19/1/1 21/2/1 22/3/1 20/4/1
f 21/1/1 23/2/1 24/3/1 22/4/1
f 23/1/1 25/2/1 26/3/1 24/4/1
f 25/1/1 27/2/1 28/3/1 26/4/1
f 27/1/1 29/2/1 30/3/1 28/4/1
f 29/1/1 31/2/1 32/3/1 30/4/1
f 31/1/1 33/2/1 34/3/1 32/4/1
f 33/1/1 35/2/1 36/3/1 34/4/1
f 35/1/1 37/2/1 38/3/1 36/4/1
f 37/1/1 39/2/1 40/3/1 38/4/1
f 39/1/1 41/2/1 42/3/1 40/4/1
f 41/1/1 43/2/1 44/3/1 42/4/1
f 43/1/1 45/2/1 46/3/1 44/4/1
f 45/1/1 47/2/1 48/3/1 46/4/1
f 47/1/1 49/2/1 50/3/1 48/4/1
f 49/1/1 51/2/1 52/3/1 50/4/1
f 51/1/1 53/2/1 54/3/1 52/4/1
f 53/1/1 55/2/1 56/3/1 54/4/1
f 55/1/1 57/2/1 58/3/1 56/4/1
f 57/1/1 59/2/1 60/3/1 58/4/1
f 59/1/1 61/2/1 62/3/1 60/4/1
f 63/1/1 64/2/1 2/3/1 1/4/1
f 65/1/1 66/2/1 61/3/1 59/4/1
f 67/1/1 68/2/1 64/3/1 63/4/1
f 69/1/1 70/2/1 66/3/1 65/4/1
f 71/1/1 72/2/1 68/3/1 67/4/1
f 73/1/1 74/2/1 70/3/1 69/4/1
f 75/1/1 76/2/1 72/3/1 71/4/1
f 77/1/1 78/2/1 74/3/1 73/4/1
f 79/1/1 80/2/1 76/3/1 75/4/1
f 81/1/1 82/2/1 78/3/1 77/4/1
f 83/1/1 84/2/1 80/3/1 79/4/1
f 85/1/1 86/2/1 82/3/1 81/4/1
f 87/1/1 88/2/1 84/3/1 83/4/1
f 89/1/1 90/2/1 86/3/1 85/4/1
f 91/1/1 92/2/1 88/3/1 87/4/1
f 93/1/1 94/2/1 90/3/1 89/4/1
f 95/1/1 96/2/1 92/3/1 91/4/1
f 97/1/1 98/2/1 94/3/1 93/4/1
f 99/1/1 100/2/1 96/3/1 95/4/1
f 101/1/1 102/2/1 98/3/1 97/4/1
f 103/1/1 104/2/1 100/3/1 99/4/1
f 105/1/1 106/2/1 102/3/1 101/4/1
f 107/1/1 108/2/1 104/3/1 103/4/1
f 109/1/1 110/2/1 106/3/1 105/4/1
f 111/1/1 112/2/1 108/3/1 107/4/1
f 113/1/1 114/2/1 110/3/1 109/4/1
f 115/1/1 116/2/1 112/3/1 111/4/1
f 117/1/1 118/2/1 114/3/1 113/4/1
f 119/1/1 120/2/1 116/3/1 115/4/1
f 121/1/1 122/2/1 118/3/1 117/4/1
f 123/1/1 124/2/1 120/3/1 119/4/1
f 125/1/1 126/2/1 122/3/1 121/4/1
f 127/1/1 128/2/1 124/3/1 123/4/1
f 129/1/1 130/2/1 126/3/1 125/4/1
f 131/1/1 132/2/1 128/3/1 127/4/1
f 133/1/1 134/2/1 130/3/1 129/4/1
f 135/1/1 136/2/1 132/3/1 131/4/1
f 136/1/1 137/2/1 138/3/1 132/4/1
f 137/1/1 139/2/1 140/3/1 138/4/1
f 139/1/1 141/2/1 142/3/1 140/4/1
f 141/1/1 143/2/1 144/3/1 142/4/1
f 143/1/1 145/2/1 146/3/1 144/4/1
f 145/1/1 147/2/1 148/3/1 146/4/1
f 147/1/1 149/2/1 150/3/1 148/4/1
f 149/1/1 151/2/1 152/3/1 150/4/1
f 151/1/1 153/2/1 154/3/1 152/4/1
f 153/1/1 155/2/1 156/3/1 154/4/1
f 155/1/1 157/2/1 158/3/1 156/4/1
f 157/1/1 159/2/1 160/3/1 158/4/1
f 159/1/1 161/2/1 162/3/1 160/4/1
f 161/1/1 163/2/1 164/3/1 162/4/1
f 163/1/1 165/2/1 166/3/1 164/4/1
f 165/1/1 167/2/1 168/3/1 166/4/1
f 167/1/1 169/2/1 170/3/1 168/4/1
f 169/1/1 171/2/1 172/3/1 170/4/1
f 171/1/1 173/2/1 174/3/1 172/4/1
f 173/1/1 175/2/1 176/3/1 174/4/1
f 175/1/1 177/2/1 178/3/1 176/4/1
f 177/1/1 179/2/1 180/3/1 178/4/1
f 179/1/1 181/2/1 182/3/1 180/4/1
f 181/1/1 183/2/1 184/3/1 182/4/1
f 183/1/1 185/2/1 186/3/1 184/4/1
f 185/1/1 187/2/1 188/3/1 186/4/1
f 187/1/1 189/2/1 190/3/1 188/4/1
f 189/1/1 191/2/1 133/3/1 190/4/1
f 191/1/1 192/2/1 134/3/1 133/4/1

g mesh_0002
f 64/5/1 193/6/1 5/7/1 2/8/1
f 194/5/1 195/6/1 9/7/1 7/8/1
f 196/5/1 197/6/1 13/7/1 11/8/1
f 198/5/1 199/6/1 17/7/1 15/8/1
f 200/5/1 201/6/1 21/7/1 19/8/1
f 202/5/1 203/6/1 25/7/1 23/8/1
f 204/5/1 205/6/1 29/7/1 27/8/1
f 206/5/1 207/6/1 33/7/1 31/8/1
f 208/5/1 209/6/1 37/7/1 35/8/1
f 210/5/1 211/6/1 41/7/1 39/8/1
f 212/5/1 213/6/1 45/7/1 43/8/1
f 214/5/1 215/6/1 49/7/1 47/8/1
f 216/5/1 217/6/1 53/7/1 51/8/1
f 218/5/1 219/6/1 57/7/1 55/8/1
f 220/5/1 221/6/1 194/7/1 193/8/1
f 222/5/1 223/6/1 196/7/1 195/8/1
f 224/5/1 225/6/1 198/7/1 197/8/1
f 226/5/1 227/6/1 200/7/1 199/8/1
f 228/5/1 229/6/1 202/7/1 201/8/1
f 230/5/1 231/6/1 204/7/1 203/8/1
f 232/5/1 233/6/1 206/7/1 205/8/1
f 234/5/1 235/6/1 208/7/1 207/8/1
f 236/5/1 237/6/1 210/7/1 209/8/1
f 238/5/1 239/6/1 212/7/1 211/8/1
f 240/5/1 241/6/1 214/7/1 213/8/1
f 242/5/1 243/6/1 216/7/1 215/8/1
f 244/5/1 245/6/1 218/7/1 217/8/1
f 246/5/1 69/6/1 65/7/1 219/8/1
f 72/5/1 247/6/1 220/7/1 68/8/1
f 248/5/1 249/6/1 222/7/1 221/8/1
f 250/5/1 251/6/1 224/7/1 223/8/1
f 252/5/1 253/6/1 226/7/1 225/8/1
f 254/5/1 255/6/1 228/7/1 227/8/1
f 256/5/1 257/6/1 230/7/1 229/8/1
f 258/5/1 259/6/1 232/7/1 231/8/1
f 260/5/1 261/6/1 234/7/1 233/8/1
f 262/5/1 263/6/1 236/7/1 235/8/1
f 264/5/1 265/6/1 238/7/1 237/8/1
f 266/5/1 267/6/1 240/7/1 239/8/1
f 268/5/1 269/6/1 242/7/1 241/8/1
f 270/5/1 271/6/1 244/7/1 243/8/1
f 272/5/1 273/6/1 246/7/1 245/8/1
f 274/5/1 275/6/1 248/7/1 247/8/1
f 276/5/1 277/6/1 250/7/1 249/8/1
f 278/5/1 279/6/1 252/7/1 251/8/1
f 280/5/1 281/6/1 254/7/1 253/8/1
f 282/5/1 283/6/1 256/7/1 255/8/1
f 284/5/1 285/6/1 258/7/1 257/8/1
f 286/5/1 287/6/1 260/7/1 259/8/1
f 288/5/1 289/6/1 262/7/1 261/8/1
f 290/5/1 291/6/1 264/7/1 263/8/1
f 292/5/1 293/6/1 266/7/1 265/8/1
f 294/5/1 295/6/1 268/7/1 267/8/1
f 296/5/1 297/6/1 270/7/1 269/8/1
f 298/5/1 299/6/1 272/7/1 271/8/1
f 300/5/1 77/6/1 73/7/1 273/8/1
f 80/5/1 301/6/1 274/7/1 76/8/1
f 302/5/1 303/6/1 276/7/1 275/8/1
f 304/5/1 305/6/1 278/7/1 277/8/1
f 306/5/1 307/6/1 280/7/1 279/8/1
f 308/5/1 309/6/1 282/7/1 281/8/1
f 310/5/1 311/6/1 284/7/1 283/8/1
f 312/5/1 313/6/1 286/7/1 285/8/1
f 314/5/1 315/6/1 288/7/1 287/8/1
f 316/5/1 317/6/1 290/7/1 289/8/1
f 318/5/1 319/6/1 292/7/1 291/8/1
f 320/5/1 321/6/1 294/7/1 293/8/1
f 322/5/1 323/6/1 296/7/1 295/8/1
f 324/5/1 325/6/1 298/7/1 297/8/1
f 326/5/1 327/6/1 300/7/1 299/8/1
f 328/5/1 329/6/1 302/7/1 301/8/1
f 330/5/1 331/6/1 304/7/1 303/8/1
f 332/5/1 333/6/1 306/7/1 305/8/1
f 334/5/1 335/6/1 308/7/1 307/8/1
f 336/5/1 337/6/1 310/7/1 309/8/1
f 338/5/1 339/6/1 312/7/1 311/8/1
f 340/5/1 341/6/1 314/7/1 313/8/1
f 342/5/1 343/6/1 316/7/1 315/8/1
f 344/5/1 345/6/1 318/7/1 317/8/1
f 346/5/1 347/6/1 320/7/1 319/8/1
f 348/5/1 349/6/1 322/7/1 321/8/1
f 350/5/1 351/6/1 324/7/1 323/8/1
f 352/5/1 353/6/1 326/7/1 325/8/1
f 354/5/1 85/6/1 81/7/1 327/8/1
f 88/5/1 355/6/1 328/7/1 84/8/1
f 356/5/1 357/6/1 330/7/1 329/8/1
f 358/5/1 359/6/1 332/7/1 331/8/1
f 360/5/1 361/6/1 334/7/1 333/8/1
f 362/5/1 363/6/1 336/7/1 335/8/1
f 364/5/1 365/6/1 338/7/1 337/8/1
f 366/5/1 367/6/1 340/7/1 339/8/1
f 368/5/1 369/6/1 342/7/1 341/8/1
f 370/5/1 371/6/1 344/7/1 343/8/1
f 372/5/1 373/6/1 346/7/1 345/8/1
f 374/5/1 375/6/1 348/7/1 347/8/1
f 376/5/1 377/6/1 350/7/1 349/8/1
f 378/5/1 379/6/1 352/7/1 351/8/1
f 380/5/1 381/6/1 354/7/1 353/8/1
f 382/5/1 383/6/1 356/7/1 355/8/1
f 384/5/1 385/6/1 358/7/1 357/8/1
f 386/5/1 387/6/1 360/7/1 359/8/1
f 388/5/1 389/6/1 362/7/1 361/8/1
f 390/5/1 391/6/1 364/7/1 363/8/1
f 392/5/1 393/6/1 366/7/1 365/8/1
f 394/5/1 395/6/1 368/7/1 367/8/1
f 396/5/1 397/6/1 370/7/1 369/8/1
f 398/5/1 399/6/1 372/7/1 371/8/1
f 400/5/1 401/6/1 374/7/1 373/8/1
f 402/5/1 403/6/1 376/7/1 375/8/1
f 404/5/1 405/6/1 378/7/1 377/8/1
f 406/5/1 407/6/1 380/7/1 379/8/1
f 408/5/1 93/6/1 89/7/1 381/8/1
f 96/5/1 409/6/1 382/7/1 92/8/1
f 410/5/1 411/6/1 384/7/1 383/8/1
f 412/5/1 413/6/1 386/7/1 385/8/1
f 414/5/1 415/6/1 388/7/1 387/8/1
f 416/5/1 417/6/1 390/7/1 389/8/1
f 418/5/1 419/6/1 392/7/1 391/8/1
f 420/5/1 421/6/1 394/7/1 393/8/1
f 422/5/1 423/6/1 396/7/1 395/8/1
f 424/5/1 425/6/1 398/7/1 397/8/1
f 426/5/1 427/6/1 400/7/1 399/8/1
f 428/5/1 429/6/1 402/7/1 401/8/1
f 430/5/1 431/6/1 404/7/1 403/8/1
f 432/5/1 433/6/1 406/7/1 405/8/1
f 434/5/1 435/6/1 408/7/1 407/8/1
f 436/5/1 437/6/1 410/7/1 409/8/1
f 438/5/1 439/6/1 412/7/1 411/8/1
f 440/5/1 441/6/1 414/7/1 413/8/1
f 442/5/1 443/6/1 416/7/1 415/8/1
f 444/5/1 445/6/1 418/7/1 417/8/1
f 446/5/1 447/6/1 420/7/1 419/8/1
f 448/5/1 449/6/1 422/7/1 421/8/1
f 450/5/1 451/6/1 424/7/1 423/8/1
f 452/5/1 453/6/1 426/7/1 425/8/1
f 454/5/1 455/6/1 428/7/1 427/8/1
f 456/5/1 457/6/1 430/7/1 429/8/1
f 458/5/1 459/6/1 432/7/1 431/8/1
f 460/5/1 461/6/1 434/7/1 433/8/1
f 462/5/1 101/6/1 97/7/1 435/8/1
f 104/5/1 463/6/1 436/7/1 100/8/1
f 464/5/1 465/6/1 438/7/1 437/8/1
f 466/5/1 467/6/1 440/7/1 439/8/1
f 468/5/1 469/6/1 442/7/1 441/8/1
f 470/5/1 471/6/1 444/7/1 443/8/1
f 472/5/1 473/6/1 446/7/1 445/8/1
f 474/5/1 475/6/1 448/7/1 447/8/1
f 476/5/1 477/6/1 450/7/1 449/8/1
f 478/5/1 479/6/1 452/7/1 451/8/1
f 480/5/1 481/6/1 454/7/1 453/8/1
f 482/5/1 483/6/1 456/7/1 455/8/1
f 484/5/1 485/6/1 458/7/1 457/8/1
f 486/5/1 487/6/1 460/7/1 459/8/1
f 488/5/1 489/6/1 462/7/1 461/8/1
f 490/5/1 491/6/1 464/7/1 463/8/1
f 492/5/1 493/6/1 466/7/1 465/8/1
f 494/5/1 495/6/1 468/7/1 467/8/1
f 496/5/1 497/6/1 470/7/1 469/8/1
f 498/5/1 499/6/1 472/7/1 471/8/1
f 500/5/1 501/6/1 474/7/1 473/8/1
f 502/5/1 503/6/1 476/7/1 475/8/1
f 504/5/1 505/6/1 478/7/1 477/8/1
f 506/5/1 507/6/1 480/7/1 479/8/1
f 508/5/1 509/6/1 482/7/1 481/8/1
f 510/5/1 511/6/1 484/7/1 483/8/1
f 512/5/1 513/6/1 486/7/1 485/8/1
f 514/5/1 515/6/1 488/7/1 487/8/1
f 516/5/1 109/6/1 105/7/1 489/8/1
f 112/5/1 517/6/1 490/7/1 108/8/1
f 518/5/1 519/6/1 492/7/1 491/8/1
f 520/5/1 521/6/1 494/7/1 493/8/1
f 522/5/1 523/6/1 496/7/1 495/8/1
f 524/5/1 525/6/1 498/7/1 497/8/1
f 526/5/1 527/6/1 500/7/1 499/8/1
f 528/5/1 529/6/1 502/7/1 501/8/1
f 530/5/1 531/6/1 504/7/1 503/8/1
f 532/5/1 533/6/1 506/7/1 505/8/1
f 534/5/1 535/6/1 508/7/1 507/8/1
f 536/5/1 537/6/1 510/7/1 509/8/1
f 538/5/1 539/6/1 512/7/1 511/8/1
f 540/5/1 541/6/1 514/7/1 513/8/1
f 542/5/1 543/6/1 516/7/1 515/8/1
f 544/5/1 545/6/1 518/7/1 517/8/1
f 546/5/1 547/6/1 520/7/1 519/8/1
f 548/5/1 549/6/1 522/7/1 521/8/1
f 550/5/1 551/6/1 524/7/1 523/8/1
f 552/5/1 553/6/1 526/7/1 525/8/1
f 554/5/1 555/6/1 528/7/1 527/8/1
f 556/5/1 557/6/1 530/7/1 529/8/1
f 558/5/1 559/6/1 532/7/1 531/8/1
f 560/5/1 561/6/1 534/7/1 533/8/1
f 562/5/1 563/6/1 536/7/1 535/8/1
f 564/5/1 565/6/1 538/7/1 537/8/1
f 566/5/1 567/6/1 540/7/1 539/8/1
f 568/5/1 569/6/1 542/7/1 541/8/1
f 570/5/1 117/6/1 113/7/1 543/8/1
f 120/5/1 571/6/1 544/7/1 116/8/1
f 572/5/1 573/6/1 546/7/1 545/8/1
f 574/5/1 575/6/1 548/7/1 547/8/1
f 576/5/1 577/6/1 550/7/1 549/8/1
f 578/5/1 579/6/1 552/7/1 551/8/1
f 580/5/1 581/6/1 554/7/1 553/8/1
f 582/5/1 583/6/1 556/7/1 555/8/1
f 584/5/1 585/6/1 558/7/1 557/8/1
f 586/5/1 587/6/1 560/7/1 559/8/1
f 588/5/1 589/6/1 562/7/1 561/8/1
f 590/5/1 591/6/1 564/7/1 563/8/1
f 592/5/1 593/6/1 566/7/1 565/8/1
f 594/5/1 595/6/1 568/7/1 567/8/1
f 596/5/1 597/6/1 570/7/1 569/8/1
f 598/5/1 599/6/1 572/7/1 571/8/1
f 600/5/1 601/6/1 574/7/1 573/8/1
f 602/5/1 603/6/1 576/7/1 575/8/1
f 604/5/1 605/6/1 578/7/1 577/8/1
f 606/5/1 607/6/1 580/7/1 579/8/1
f 608/5/1 609/6/1 582/7/1 581/8/1
f 610/5/1 611/6/1 584/7/1 583/8/1
f 612/5/1 613/6/1 586/7/1 585/8/1
f 614/5/1 615/6/1 588/7/1 587/8/1
f 616/5/1 617/6/1 590/7/1 589/8/1
f 618/5/1 619/6/1 592/7/1 591/8/1
f 620/5/1 621/6/1 594/7/1 593/8/1
f 622/5/1 623/6/1 596/7/1 595/8/1
f 624/5/1 125/6/1 121/7/1 597/8/1
f 128/5/1 625/6/1 598/7/1 124/8/1
f 626/5/1 627/6/1 600/7/1 599/8/1
f 628/5/1 629/6/1 602/7/1 601/8/1
f 630/5/1 631/6/1 604/7/1 603/8/1
f 632/5/1 633/6/1 606/7/1 605/8/1
f 634/5/1 635/6/1 608/7/1 607/8/1
f 636/5/1 637/6/1 610/7/1 609/8/1
f 638/5/1 639/6/1 612/7/1 611/8/1
f 640/5/1 641/6/1 614/7/1 613/8/1
f 642/5/1 643/6/1 616/7/1 615/8/1
f 644/5/1 645/6/1 618/7/1 617/8/1
f 646/5/1 647/6/1 620/7/1 619/8/1
f 648/5/1 649/6/1 622/7/1 621/8/1
f 650/5/1 651/6/1 624/7/1 623/8/1
f 138/5/1 140/6/1 626/7/1 625/8/1
f 142/5/1 144/6/1 628/7/1 627/8/1
f 146/5/1 148/6/1 630/7/1 629/8/1
f 150/5/1 152/6/1 632/7/1 631/8/1
f 154/5/1 156/6/1 634/7/1 633/8/1
f 158/5/1 160/6/1 636/7/1 635/8/1
f 162/5/1 164/6/1 638/7/1 637/8/1
f 166/5/1 168/6/1 640/7/1 639/8/1
f 170/5/1 172/6/1 642/7/1 641/8/1
f 174/5/1 176/6/1 644/7/1 643/8/1
f 178/5/1 180/6/1 646/7/1 645/8/1
f 182/5/1 184/6/1 648/7/1 647/8/1
f 186/5/1 188/6/1 650/7/1 649/8/1
f 190/5/1 133/6/1 129/7/1 651/8/1

